<svg id="soc" xmlns="http://www.w3.org/2000/svg" xmlns:xlink="http://www.w3.org/1999/xlink" viewBox="220 76.7 1400.9 409.3" >
<style type="text/css">
	.st0{fill:#231F20;}
	.st1{fill:none;}
</style>
<a xlink:href="https://www.facebook.com/celisproduce">
 	<g>
	<path class="st0" d="M1420.3,397.7h51.1V273.8h39.4l4.8-43.7h-44.3V203c0-9.6,4-10.5,8.9-10.5h34.7V150l-41-0.1
		c-45.5,0-53.6,31.7-53.6,51.9v28.3h-28.6v43.7h28.6V397.7z"/>
	<rect x="1331.7" y="76.7" class="st1" width="289.2" height="409.3"/>
	</g>
</a>
<a xlink:href="https://twitter.com/celisproduce">
	<g>
		<rect x="970.5" y="76.7" class="st1" width="361.2" height="409.3"/>
		<path class="st0" d="M1268.7,171.5c-9.8,6.2-20.7,10.6-32.3,13c-9.3-10.4-22.5-16.9-37.1-16.9c-28.1,0-50.8,24-50.8,53.6
			c0,4.2,0.5,8.3,1.3,12.2c-42.3-2.2-79.7-23.6-104.8-56c-4.4,7.9-6.9,17.1-6.9,27c0,18.6,9,35,22.6,44.6c-8.3-0.3-16.2-2.7-23-6.7
			v0.7c0,26,17.5,47.7,40.8,52.6c-4.3,1.2-8.8,1.9-13.4,1.9c-3.3,0-6.4-0.3-9.6-1c6.5,21.3,25.2,36.8,47.5,37.2
			c-17.4,14.4-39.3,23-63.2,23c-4.1,0-8.2-0.3-12.1-0.8c22.5,15.2,49.3,24.1,77.9,24.1c93.5,0,144.7-81.7,144.7-152.6
			c0-2.3,0-4.6-0.1-6.9c9.9-7.6,18.6-17,25.4-27.8c-9.1,4.3-18.9,7.2-29.2,8.4C1256.8,194.5,1264.9,184.1,1268.7,171.5"/>
	</g>
</a>
<a xlink:href="https://www.youtube.com/user/celisproduce">
	<g>
		<rect x="220" y="76.7" class="st1" width="363.2" height="409.3"/>
		<path class="st0" d="M409.9,179.2c33.1,0,37,0.1,50.1,0.7c12.1,0.6,18.6,2.6,23,4.3c5.8,2.2,9.9,4.9,14.2,9.3
			c4.3,4.3,7,8.5,9.3,14.2c1.7,4.4,3.7,10.9,4.3,23c0.6,13.1,0.7,17,0.7,50.1s-0.1,37-0.7,50.1c-0.6,12.1-2.6,18.6-4.3,23
			c-2.2,5.8-4.9,9.9-9.3,14.2c-4.3,4.3-8.5,7-14.2,9.3c-4.4,1.7-10.9,3.7-23,4.3c-13.1,0.6-17,0.7-50.1,0.7s-37-0.1-50.1-0.7
			c-12.1-0.6-18.6-2.6-23-4.3c-5.8-2.2-9.9-4.9-14.2-9.3c-4.3-4.3-7-8.5-9.3-14.2c-1.7-4.4-3.7-10.9-4.3-23
			c-0.6-13.1-0.7-17-0.7-50.1s0.1-37,0.7-50.1c0.6-12.1,2.6-18.6,4.3-23c2.2-5.8,4.9-9.9,9.3-14.2c4.3-4.3,8.5-7,14.2-9.3
			c4.4-1.7,10.9-3.7,23-4.3C372.9,179.3,376.8,179.2,409.9,179.2 M409.9,156.9c-33.7,0-37.9,0.1-51.1,0.7s-22.2,2.7-30.1,5.8
			c-8.1,3.2-15.1,7.4-21.9,14.3c-6.9,6.9-11.1,13.8-14.3,21.9c-3.1,7.9-5.2,16.9-5.8,30.1s-0.7,17.4-0.7,51.1s0.1,37.9,0.7,51.1
			s2.7,22.2,5.8,30.1c3.2,8.1,7.4,15.1,14.3,21.9c6.9,6.9,13.8,11.1,21.9,14.3c7.9,3.1,16.9,5.2,30.1,5.8c13.2,0.6,17.4,0.7,51.1,0.7
			s37.9-0.1,51.1-0.7s22.2-2.7,30.1-5.8c8.1-3.2,15.1-7.4,21.9-14.3c6.9-6.9,11.1-13.8,14.3-21.9c3.1-7.9,5.2-16.9,5.8-30.1
			s0.7-17.4,0.7-51.1s-0.1-37.9-0.7-51.1c-0.6-13.2-2.7-22.2-5.8-30.1c-3.2-8.1-7.4-15.1-14.3-21.9c-6.9-6.9-13.8-11.1-21.9-14.3
			c-7.9-3.1-16.9-5.2-30.1-5.8C447.7,157,443.5,156.9,409.9,156.9L409.9,156.9z M409.9,217.2c-35.1,0-63.6,28.5-63.6,63.6
			s28.5,63.6,63.6,63.6s63.6-28.5,63.6-63.6S445,217.2,409.9,217.2z M409.9,322.1c-22.8,0-41.3-18.5-41.3-41.3
			c0-22.8,18.5-41.3,41.3-41.3s41.3,18.5,41.3,41.3C451.2,303.6,432.7,322.1,409.9,322.1z M476,199.8c-8.2,0-14.9,6.7-14.9,14.9
			s6.7,14.9,14.9,14.9s14.9-6.7,14.9-14.9S484.2,199.8,476,199.8z"/>
	</g>
</a>
<a xlink:href="https://www.instagram.com/celisproduce/">
	<g>
		<rect x="583.2" y="76.7" class="st1" width="387.2" height="409.3"/>
		<path class="st0" d="M900,226.5c0,0-2.6-18.7-10.6-27c-10.2-10.8-21.6-10.9-26.8-11.5c-37.4-2.7-93.5-2.7-93.5-2.7H769
			c0,0-56.1,0-93.5,2.7c-5.2,0.6-16.6,0.7-26.8,11.5c-8,8.2-10.6,27-10.6,27s-2.7,22-2.7,43.9V291c0,22,2.7,44,2.7,44
			s2.6,18.7,10.6,26.9c10.2,10.8,23.6,10.5,29.5,11.6c21.4,2.1,90.9,2.7,90.9,2.7s56.2-0.1,93.6-2.8c5.2-0.6,16.6-0.7,26.8-11.5
			c8-8.2,10.6-26.9,10.6-26.9s2.7-22,2.7-44v-20.6C902.6,248.5,900,226.5,900,226.5 M741.4,316v-76.3l72.2,38.3L741.4,316z"/>
	</g>
</a>
</svg>
